<?xml version="1.0" encoding="UTF-8"?>
<svg xmlns="http://www.w3.org/2000/svg" xmlns:xlink="http://www.w3.org/1999/xlink" width="504pt" height="360pt" viewBox="0 0 504 360" version="1.1">
<g id="surface216">
<rect x="0" y="0" width="504" height="360" style="fill:rgb(100%,100%,100%);fill-opacity:1;stroke:none;"/>
<path style=" stroke:none;fill-rule:nonzero;fill:rgb(0%,0%,0%);fill-opacity:1;" d="M 238.910156 96.238281 L 238.910156 95.3125 L 239.875 95.3125 L 239.875 96.238281 Z M 238.910156 103.285156 L 238.910156 97.472656 L 239.875 97.472656 L 239.875 103.285156 Z M 238.910156 103.285156 "/>
<path style=" stroke:none;fill-rule:nonzero;fill:rgb(0%,0%,0%);fill-opacity:1;" d="M 245.027344 102.351563 L 244.972656 102.457031 L 244.914063 102.558594 L 244.851563 102.65625 L 244.785156 102.746094 L 244.714844 102.828125 L 244.640625 102.90625 L 244.5625 102.976563 L 244.484375 103.039063 L 244.398438 103.097656 L 244.3125 103.148438 L 244.222656 103.195313 L 244.128906 103.238281 L 244.027344 103.273438 L 243.925781 103.304688 L 243.816406 103.332031 L 243.707031 103.351563 L 243.589844 103.371094 L 243.46875 103.382813 L 243.34375 103.390625 L 243.214844 103.390625 L 243.003906 103.382813 L 242.800781 103.363281 L 242.609375 103.324219 L 242.429688 103.273438 L 242.261719 103.207031 L 242.105469 103.125 L 241.960938 103.027344 L 241.828125 102.917969 L 241.703125 102.792969 L 241.59375 102.652344 L 241.496094 102.496094 L 241.410156 102.324219 L 241.332031 102.136719 L 241.265625 101.933594 L 241.207031 101.71875 L 241.160156 101.488281 L 241.125 101.238281 L 241.097656 100.976563 L 241.085938 100.699219 L 241.078125 100.40625 L 241.101563 99.828125 L 241.164063 99.3125 L 241.269531 98.855469 L 241.421875 98.460938 L 241.613281 98.125 L 241.847656 97.851563 L 242.125 97.640625 L 242.445313 97.488281 L 242.808594 97.394531 L 243.214844 97.367188 L 243.347656 97.367188 L 243.472656 97.375 L 243.59375 97.386719 L 243.710938 97.402344 L 243.820313 97.425781 L 243.929688 97.453125 L 244.035156 97.484375 L 244.132813 97.519531 L 244.226563 97.5625 L 244.316406 97.605469 L 244.402344 97.65625 L 244.488281 97.714844 L 244.566406 97.777344 L 244.644531 97.847656 L 244.714844 97.917969 L 244.785156 98 L 244.851563 98.085938 L 244.914063 98.175781 L 244.972656 98.273438 L 245.027344 98.375 L 245.039063 98.375 L 245.039063 98.351563 L 245.035156 98.335938 L 245.035156 98.25 L 245.03125 98.230469 L 245.03125 98.039063 L 245.027344 98.015625 L 245.027344 95.3125 L 245.992188 95.3125 L 245.992188 102.488281 L 245.996094 102.527344 L 245.996094 102.640625 L 246 102.675781 L 246 102.746094 L 246.003906 102.777344 L 246.003906 102.875 L 246.007813 102.90625 L 246.007813 102.996094 L 246.011719 103.023438 L 246.011719 103.074219 L 246.015625 103.097656 L 246.015625 103.164063 L 246.019531 103.183594 L 246.019531 103.234375 L 246.023438 103.25 L 246.023438 103.273438 L 246.027344 103.285156 L 245.101563 103.285156 L 245.101563 103.273438 L 245.09375 103.25 L 245.09375 103.234375 L 245.089844 103.21875 L 245.089844 103.203125 L 245.085938 103.1875 L 245.085938 103.171875 L 245.082031 103.152344 L 245.082031 103.132813 L 245.078125 103.113281 L 245.078125 103.070313 L 245.074219 103.046875 L 245.074219 103.023438 L 245.070313 103 L 245.070313 102.953125 L 245.066406 102.929688 L 245.0625 102.902344 L 245.0625 102.824219 L 245.058594 102.796875 L 245.058594 102.71875 L 245.054688 102.691406 L 245.054688 102.632813 L 245.050781 102.605469 L 245.050781 102.460938 L 245.046875 102.433594 L 245.046875 102.351563 Z M 242.09375 100.375 L 242.09375 100.492188 L 242.101563 100.71875 L 242.105469 100.828125 L 242.113281 100.933594 L 242.121094 101.03125 L 242.132813 101.132813 L 242.140625 101.226563 L 242.15625 101.316406 L 242.167969 101.40625 L 242.183594 101.488281 L 242.203125 101.570313 L 242.222656 101.648438 L 242.242188 101.722656 L 242.265625 101.796875 L 242.292969 101.867188 L 242.320313 101.933594 L 242.347656 101.996094 L 242.410156 102.113281 L 242.445313 102.167969 L 242.480469 102.21875 L 242.519531 102.265625 L 242.558594 102.308594 L 242.601563 102.351563 L 242.644531 102.390625 L 242.6875 102.425781 L 242.734375 102.457031 L 242.785156 102.488281 L 242.835938 102.515625 L 242.886719 102.539063 L 242.941406 102.5625 L 243 102.582031 L 243.058594 102.597656 L 243.121094 102.613281 L 243.183594 102.625 L 243.25 102.632813 L 243.320313 102.640625 L 243.390625 102.644531 L 243.539063 102.644531 L 243.613281 102.640625 L 243.753906 102.625 L 243.886719 102.601563 L 243.953125 102.585938 L 244.078125 102.546875 L 244.136719 102.523438 L 244.191406 102.496094 L 244.25 102.464844 L 244.304688 102.433594 L 244.355469 102.398438 L 244.40625 102.359375 L 244.453125 102.320313 L 244.5 102.273438 L 244.542969 102.226563 L 244.585938 102.175781 L 244.625 102.125 L 244.664063 102.066406 L 244.734375 101.941406 L 244.765625 101.875 L 244.796875 101.804688 L 244.828125 101.730469 L 244.855469 101.652344 L 244.902344 101.488281 L 244.925781 101.398438 L 244.945313 101.308594 L 244.976563 101.113281 L 244.988281 101.011719 L 245.011719 100.792969 L 245.015625 100.675781 L 245.023438 100.558594 L 245.027344 100.433594 L 245.027344 100.1875 L 245.023438 100.070313 L 245.015625 99.957031 L 245.011719 99.84375 L 245 99.738281 L 244.988281 99.636719 L 244.976563 99.539063 L 244.945313 99.351563 L 244.925781 99.265625 L 244.878906 99.101563 L 244.855469 99.023438 L 244.828125 98.949219 L 244.796875 98.878906 L 244.734375 98.746094 L 244.664063 98.628906 L 244.625 98.574219 L 244.539063 98.472656 L 244.496094 98.429688 L 244.449219 98.386719 L 244.402344 98.347656 L 244.300781 98.277344 L 244.191406 98.222656 L 244.136719 98.199219 L 244.078125 98.175781 L 244.019531 98.15625 L 243.957031 98.136719 L 243.894531 98.121094 L 243.761719 98.097656 L 243.691406 98.089844 L 243.621094 98.085938 L 243.472656 98.078125 L 243.40625 98.082031 L 243.335938 98.085938 L 243.269531 98.089844 L 243.207031 98.097656 L 243.144531 98.109375 L 243.082031 98.125 L 243.027344 98.140625 L 242.96875 98.160156 L 242.914063 98.179688 L 242.863281 98.203125 L 242.761719 98.257813 L 242.714844 98.289063 L 242.667969 98.324219 L 242.625 98.363281 L 242.582031 98.40625 L 242.542969 98.449219 L 242.503906 98.496094 L 242.46875 98.546875 L 242.398438 98.65625 L 242.335938 98.78125 L 242.308594 98.847656 L 242.28125 98.917969 L 242.257813 98.988281 L 242.210938 99.144531 L 242.191406 99.230469 L 242.160156 99.402344 L 242.144531 99.496094 L 242.132813 99.59375 L 242.125 99.691406 L 242.113281 99.796875 L 242.105469 99.90625 L 242.101563 100.015625 L 242.09375 100.25 Z M 242.09375 100.375 "/>
<path style=" stroke:none;fill-rule:nonzero;fill:rgb(0%,0%,0%);fill-opacity:1;" d="M 248.21875 100.582031 L 248.21875 100.671875 L 248.226563 100.851563 L 248.230469 100.9375 L 248.238281 101.023438 L 248.261719 101.1875 L 248.277344 101.269531 L 248.308594 101.425781 L 248.328125 101.5 L 248.351563 101.574219 L 248.375 101.644531 L 248.402344 101.714844 L 248.429688 101.78125 L 248.460938 101.847656 L 248.492188 101.910156 L 248.523438 101.96875 L 248.5625 102.03125 L 248.597656 102.085938 L 248.640625 102.140625 L 248.683594 102.191406 L 248.726563 102.238281 L 248.773438 102.285156 L 248.824219 102.332031 L 248.875 102.371094 L 248.984375 102.449219 L 249.042969 102.484375 L 249.101563 102.515625 L 249.164063 102.542969 L 249.230469 102.570313 L 249.296875 102.59375 L 249.367188 102.613281 L 249.441406 102.628906 L 249.515625 102.640625 L 249.59375 102.652344 L 249.671875 102.660156 L 249.753906 102.664063 L 249.839844 102.667969 L 249.960938 102.664063 L 250.082031 102.65625 L 250.195313 102.644531 L 250.300781 102.625 L 250.40625 102.601563 L 250.503906 102.574219 L 250.59375 102.542969 L 250.683594 102.503906 L 250.765625 102.460938 L 250.84375 102.414063 L 250.917969 102.363281 L 250.984375 102.308594 L 251.050781 102.25 L 251.109375 102.191406 L 251.164063 102.128906 L 251.257813 101.996094 L 251.296875 101.925781 L 251.328125 101.851563 L 251.359375 101.773438 L 252.207031 102.015625 L 252.1875 102.066406 L 252.167969 102.113281 L 252.144531 102.164063 L 252.097656 102.257813 L 252.042969 102.359375 L 252.011719 102.40625 L 251.984375 102.457031 L 251.949219 102.503906 L 251.917969 102.554688 L 251.882813 102.601563 L 251.84375 102.648438 L 251.804688 102.691406 L 251.761719 102.738281 L 251.667969 102.824219 L 251.621094 102.863281 L 251.570313 102.90625 L 251.515625 102.945313 L 251.457031 102.984375 L 251.339844 103.054688 L 251.207031 103.125 L 251.136719 103.15625 L 251.0625 103.183594 L 250.988281 103.214844 L 250.910156 103.242188 L 250.828125 103.269531 L 250.746094 103.292969 L 250.566406 103.332031 L 250.472656 103.347656 L 250.277344 103.371094 L 250.171875 103.378906 L 250.0625 103.386719 L 249.953125 103.390625 L 249.839844 103.390625 L 249.585938 103.382813 L 249.347656 103.359375 L 249.121094 103.324219 L 248.90625 103.269531 L 248.703125 103.199219 L 248.511719 103.113281 L 248.335938 103.015625 L 248.167969 102.898438 L 248.015625 102.769531 L 247.875 102.625 L 247.746094 102.460938 L 247.632813 102.285156 L 247.53125 102.09375 L 247.445313 101.890625 L 247.371094 101.667969 L 247.308594 101.433594 L 247.261719 101.183594 L 247.230469 100.917969 L 247.207031 100.636719 L 247.203125 100.339844 L 247.203125 100.179688 L 247.210938 100.023438 L 247.21875 99.875 L 247.234375 99.726563 L 247.253906 99.585938 L 247.300781 99.320313 L 247.332031 99.195313 L 247.367188 99.074219 L 247.40625 98.960938 L 247.449219 98.847656 L 247.492188 98.742188 L 247.542969 98.636719 L 247.59375 98.539063 L 247.648438 98.445313 L 247.707031 98.355469 L 247.765625 98.269531 L 247.828125 98.1875 L 247.894531 98.109375 L 247.964844 98.035156 L 248.035156 97.96875 L 248.109375 97.902344 L 248.265625 97.785156 L 248.347656 97.730469 L 248.519531 97.636719 L 248.699219 97.558594 L 248.886719 97.496094 L 248.984375 97.46875 L 249.179688 97.421875 L 249.382813 97.390625 L 249.484375 97.378906 L 249.589844 97.371094 L 249.695313 97.367188 L 249.945313 97.367188 L 250.085938 97.375 L 250.21875 97.386719 L 250.347656 97.402344 L 250.472656 97.425781 L 250.589844 97.449219 L 250.707031 97.480469 L 250.816406 97.515625 L 250.921875 97.558594 L 251.019531 97.601563 L 251.117188 97.652344 L 251.210938 97.703125 L 251.300781 97.761719 L 251.382813 97.820313 L 251.464844 97.882813 L 251.542969 97.949219 L 251.617188 98.023438 L 251.683594 98.097656 L 251.75 98.175781 L 251.867188 98.339844 L 251.976563 98.519531 L 252.023438 98.613281 L 252.066406 98.707031 L 252.109375 98.808594 L 252.144531 98.910156 L 252.179688 99.015625 L 252.234375 99.234375 L 252.257813 99.347656 L 252.28125 99.464844 L 252.300781 99.582031 L 252.316406 99.699219 L 252.332031 99.820313 L 252.34375 99.945313 L 252.359375 100.195313 L 252.363281 100.324219 L 252.363281 100.582031 Z M 251.363281 99.839844 L 251.34375 99.664063 L 251.320313 99.492188 L 251.289063 99.335938 L 251.25 99.1875 L 251.207031 99.046875 L 251.15625 98.917969 L 251.101563 98.800781 L 251.039063 98.691406 L 250.972656 98.59375 L 250.898438 98.503906 L 250.816406 98.421875 L 250.730469 98.351563 L 250.636719 98.289063 L 250.535156 98.230469 L 250.425781 98.1875 L 250.3125 98.148438 L 250.191406 98.117188 L 250.0625 98.097656 L 249.925781 98.082031 L 249.785156 98.078125 L 249.738281 98.082031 L 249.6875 98.082031 L 249.636719 98.085938 L 249.433594 98.117188 L 249.382813 98.132813 L 249.328125 98.144531 L 249.273438 98.160156 L 249.222656 98.175781 L 249.121094 98.214844 L 249.070313 98.238281 L 249.019531 98.265625 L 248.972656 98.292969 L 248.925781 98.324219 L 248.832031 98.394531 L 248.785156 98.433594 L 248.699219 98.519531 L 248.65625 98.566406 L 248.578125 98.667969 L 248.539063 98.726563 L 248.46875 98.84375 L 248.40625 98.976563 L 248.375 99.046875 L 248.347656 99.121094 L 248.324219 99.195313 L 248.300781 99.277344 L 248.28125 99.363281 L 248.265625 99.449219 L 248.242188 99.636719 L 248.226563 99.839844 Z M 251.363281 99.839844 "/>
<path style=" stroke:none;fill-rule:nonzero;fill:rgb(0%,0%,0%);fill-opacity:1;" d="M 257.285156 103.285156 L 257.285156 99.601563 L 257.28125 99.515625 L 257.28125 99.433594 L 257.277344 99.359375 L 257.273438 99.28125 L 257.265625 99.210938 L 257.261719 99.140625 L 257.253906 99.074219 L 257.230469 98.949219 L 257.21875 98.890625 L 257.207031 98.835938 L 257.191406 98.78125 L 257.160156 98.679688 L 257.140625 98.632813 L 257.121094 98.589844 L 257.097656 98.546875 L 257.074219 98.507813 L 257.046875 98.46875 L 256.992188 98.398438 L 256.929688 98.335938 L 256.894531 98.308594 L 256.859375 98.285156 L 256.78125 98.238281 L 256.738281 98.21875 L 256.695313 98.203125 L 256.648438 98.1875 L 256.605469 98.171875 L 256.503906 98.148438 L 256.453125 98.140625 L 256.394531 98.128906 L 256.339844 98.125 L 256.277344 98.117188 L 256.214844 98.113281 L 256.019531 98.113281 L 255.949219 98.117188 L 255.886719 98.121094 L 255.820313 98.132813 L 255.695313 98.15625 L 255.636719 98.171875 L 255.519531 98.210938 L 255.460938 98.234375 L 255.410156 98.261719 L 255.355469 98.289063 L 255.304688 98.316406 L 255.253906 98.347656 L 255.160156 98.417969 L 255.074219 98.496094 L 255.03125 98.539063 L 254.988281 98.585938 L 254.953125 98.628906 L 254.847656 98.78125 L 254.816406 98.839844 L 254.789063 98.894531 L 254.734375 99.019531 L 254.710938 99.082031 L 254.6875 99.148438 L 254.667969 99.214844 L 254.652344 99.285156 L 254.632813 99.359375 L 254.621094 99.429688 L 254.597656 99.585938 L 254.589844 99.664063 L 254.585938 99.746094 L 254.582031 99.832031 L 254.582031 103.285156 L 253.613281 103.285156 L 253.613281 98.410156 L 253.609375 98.371094 L 253.609375 98.097656 L 253.605469 98.058594 L 253.605469 97.949219 L 253.601563 97.914063 L 253.601563 97.8125 L 253.597656 97.78125 L 253.597656 97.691406 L 253.59375 97.664063 L 253.59375 97.613281 L 253.589844 97.589844 L 253.589844 97.53125 L 253.585938 97.515625 L 253.585938 97.492188 L 253.582031 97.480469 L 253.582031 97.472656 L 254.496094 97.472656 L 254.496094 97.480469 L 254.5 97.488281 L 254.5 97.523438 L 254.503906 97.539063 L 254.503906 97.59375 L 254.507813 97.617188 L 254.507813 97.667969 L 254.511719 97.691406 L 254.511719 97.773438 L 254.515625 97.800781 L 254.515625 97.890625 L 254.523438 97.953125 L 254.523438 98.011719 L 254.527344 98.042969 L 254.527344 98.074219 L 254.53125 98.109375 L 254.53125 98.171875 L 254.535156 98.203125 L 254.535156 98.320313 L 254.539063 98.347656 L 254.539063 98.464844 L 254.554688 98.464844 L 254.582031 98.417969 L 254.613281 98.367188 L 254.640625 98.320313 L 254.703125 98.226563 L 254.730469 98.179688 L 254.765625 98.136719 L 254.828125 98.050781 L 254.859375 98.011719 L 254.894531 97.96875 L 254.929688 97.929688 L 255.003906 97.855469 L 255.042969 97.820313 L 255.082031 97.789063 L 255.121094 97.753906 L 255.160156 97.722656 L 255.246094 97.667969 L 255.292969 97.636719 L 255.339844 97.609375 L 255.433594 97.5625 L 255.535156 97.515625 L 255.585938 97.496094 L 255.640625 97.480469 L 255.695313 97.460938 L 255.8125 97.429688 L 255.871094 97.417969 L 255.996094 97.394531 L 256.058594 97.386719 L 256.128906 97.378906 L 256.195313 97.371094 L 256.265625 97.367188 L 256.507813 97.367188 L 256.601563 97.371094 L 256.691406 97.375 L 256.777344 97.382813 L 256.863281 97.394531 L 256.945313 97.40625 L 257.023438 97.421875 L 257.101563 97.441406 L 257.175781 97.460938 L 257.316406 97.507813 L 257.378906 97.535156 L 257.445313 97.566406 L 257.503906 97.597656 L 257.5625 97.632813 L 257.621094 97.671875 L 257.675781 97.710938 L 257.726563 97.753906 L 257.820313 97.847656 L 257.863281 97.898438 L 257.90625 97.953125 L 257.945313 98.011719 L 257.980469 98.070313 L 258.015625 98.132813 L 258.046875 98.199219 L 258.074219 98.265625 L 258.101563 98.335938 L 258.125 98.410156 L 258.148438 98.488281 L 258.167969 98.566406 L 258.1875 98.648438 L 258.21875 98.820313 L 258.230469 98.914063 L 258.246094 99.101563 L 258.253906 99.304688 L 258.253906 103.285156 Z M 257.285156 103.285156 "/>
<path style=" stroke:none;fill-rule:nonzero;fill:rgb(0%,0%,0%);fill-opacity:1;" d="M 261.945313 103.242188 L 261.902344 103.253906 L 261.855469 103.265625 L 261.8125 103.273438 L 261.769531 103.285156 L 261.675781 103.300781 L 261.632813 103.3125 L 261.585938 103.320313 L 261.539063 103.324219 L 261.496094 103.332031 L 261.402344 103.347656 L 261.25 103.359375 L 261.140625 103.367188 L 261.085938 103.367188 L 261.027344 103.371094 L 260.96875 103.371094 L 260.746094 103.355469 L 260.550781 103.316406 L 260.375 103.25 L 260.226563 103.160156 L 260.097656 103.042969 L 259.992188 102.894531 L 259.914063 102.726563 L 259.855469 102.527344 L 259.820313 102.304688 L 259.808594 102.054688 L 259.808594 98.175781 L 259.136719 98.175781 L 259.136719 97.472656 L 259.84375 97.472656 L 260.128906 96.171875 L 260.773438 96.171875 L 260.773438 97.472656 L 261.847656 97.472656 L 261.847656 98.175781 L 260.773438 98.175781 L 260.773438 101.84375 L 260.777344 101.925781 L 260.78125 102.003906 L 260.785156 102.074219 L 260.796875 102.140625 L 260.808594 102.203125 L 260.824219 102.257813 L 260.839844 102.308594 L 260.859375 102.355469 L 260.882813 102.398438 L 260.910156 102.4375 L 260.9375 102.46875 L 260.972656 102.496094 L 261.050781 102.542969 L 261.097656 102.558594 L 261.148438 102.574219 L 261.203125 102.585938 L 261.257813 102.59375 L 261.320313 102.601563 L 261.46875 102.601563 L 261.496094 102.597656 L 261.523438 102.597656 L 261.578125 102.589844 L 261.605469 102.589844 L 261.628906 102.585938 L 261.683594 102.578125 L 261.710938 102.570313 L 261.765625 102.5625 L 261.796875 102.554688 L 261.824219 102.550781 L 261.855469 102.546875 L 261.882813 102.539063 L 261.914063 102.535156 L 261.945313 102.527344 Z M 261.945313 103.242188 "/>
<path style=" stroke:none;fill-rule:nonzero;fill:rgb(97.254902%,46.27451%,42.745098%);fill-opacity:1;" d="M 241.125 124.402344 L 252.503906 124.402344 L 252.503906 113.023438 L 241.125 113.023438 Z M 241.125 124.402344 "/>
<path style=" stroke:none;fill-rule:nonzero;fill:rgb(82.745098%,57.254902%,0%);fill-opacity:1;" d="M 241.125 141.683594 L 252.503906 141.683594 L 252.503906 130.304688 L 241.125 130.304688 Z M 241.125 141.683594 "/>
<path style=" stroke:none;fill-rule:nonzero;fill:rgb(57.647059%,66.666667%,0%);fill-opacity:1;" d="M 241.125 158.964844 L 252.503906 158.964844 L 252.503906 147.585938 L 241.125 147.585938 Z M 241.125 158.964844 "/>
<path style=" stroke:none;fill-rule:nonzero;fill:rgb(0%,72.941176%,21.960784%);fill-opacity:1;" d="M 241.125 176.242188 L 252.503906 176.242188 L 252.503906 164.863281 L 241.125 164.863281 Z M 241.125 176.242188 "/>
<path style=" stroke:none;fill-rule:nonzero;fill:rgb(0%,75.686275%,62.352941%);fill-opacity:1;" d="M 241.125 193.523438 L 252.503906 193.523438 L 252.503906 182.144531 L 241.125 182.144531 Z M 241.125 193.523438 "/>
<path style=" stroke:none;fill-rule:nonzero;fill:rgb(0%,72.54902%,89.019608%);fill-opacity:1;" d="M 241.125 210.804688 L 252.503906 210.804688 L 252.503906 199.425781 L 241.125 199.425781 Z M 241.125 210.804688 "/>
<path style=" stroke:none;fill-rule:nonzero;fill:rgb(38.039216%,61.176471%,100%);fill-opacity:1;" d="M 241.125 228.082031 L 252.503906 228.082031 L 252.503906 216.703125 L 241.125 216.703125 Z M 241.125 228.082031 "/>
<path style=" stroke:none;fill-rule:nonzero;fill:rgb(85.882353%,44.705882%,98.431373%);fill-opacity:1;" d="M 241.125 245.363281 L 252.503906 245.363281 L 252.503906 233.984375 L 241.125 233.984375 Z M 241.125 245.363281 "/>
<path style=" stroke:none;fill-rule:nonzero;fill:rgb(100%,38.039216%,76.470588%);fill-opacity:1;" d="M 241.125 262.644531 L 252.503906 262.644531 L 252.503906 251.265625 L 241.125 251.265625 Z M 241.125 262.644531 "/>
<path style=" stroke:none;fill-rule:nonzero;fill:rgb(0%,0%,0%);fill-opacity:1;" d="M 265.484375 118.710938 L 265.480469 118.882813 L 265.476563 119.050781 L 265.46875 119.210938 L 265.457031 119.367188 L 265.441406 119.515625 L 265.421875 119.660156 L 265.402344 119.796875 L 265.375 119.933594 L 265.347656 120.058594 L 265.316406 120.179688 L 265.28125 120.296875 L 265.246094 120.410156 L 265.207031 120.515625 L 265.164063 120.621094 L 265.121094 120.71875 L 265.074219 120.8125 L 265.027344 120.902344 L 264.972656 120.988281 L 264.921875 121.066406 L 264.863281 121.144531 L 264.804688 121.214844 L 264.746094 121.28125 L 264.683594 121.34375 L 264.621094 121.402344 L 264.554688 121.457031 L 264.488281 121.507813 L 264.417969 121.554688 L 264.34375 121.597656 L 264.195313 121.667969 L 264.117188 121.699219 L 264.039063 121.726563 L 263.957031 121.75 L 263.792969 121.789063 L 263.628906 121.8125 L 263.542969 121.820313 L 263.457031 121.824219 L 263.367188 121.828125 L 263.195313 121.820313 L 263.109375 121.8125 L 263.023438 121.800781 L 262.941406 121.789063 L 262.777344 121.75 L 262.699219 121.726563 L 262.621094 121.699219 L 262.542969 121.667969 L 262.394531 121.597656 L 262.324219 121.554688 L 262.253906 121.507813 L 262.1875 121.457031 L 262.121094 121.402344 L 262.058594 121.34375 L 261.996094 121.28125 L 261.9375 121.214844 L 261.878906 121.144531 L 261.824219 121.070313 L 261.769531 120.988281 L 261.722656 120.90625 L 261.671875 120.816406 L 261.628906 120.722656 L 261.585938 120.625 L 261.542969 120.519531 L 261.503906 120.414063 L 261.433594 120.1875 L 261.378906 119.9375 L 261.332031 119.664063 L 261.316406 119.519531 L 261.300781 119.367188 L 261.289063 119.210938 L 261.28125 119.050781 L 261.277344 118.882813 L 261.277344 118.53125 L 261.28125 118.359375 L 261.289063 118.191406 L 261.300781 118.03125 L 261.316406 117.875 L 261.332031 117.726563 L 261.355469 117.585938 L 261.378906 117.453125 L 261.40625 117.320313 L 261.433594 117.199219 L 261.46875 117.082031 L 261.503906 116.96875 L 261.542969 116.859375 L 261.585938 116.757813 L 261.628906 116.660156 L 261.675781 116.566406 L 261.722656 116.476563 L 261.773438 116.394531 L 261.828125 116.316406 L 261.882813 116.242188 L 261.941406 116.171875 L 262 116.105469 L 262.0625 116.046875 L 262.125 115.992188 L 262.191406 115.9375 L 262.257813 115.890625 L 262.328125 115.847656 L 262.402344 115.808594 L 262.476563 115.773438 L 262.550781 115.742188 L 262.628906 115.714844 L 262.710938 115.691406 L 262.789063 115.667969 L 262.871094 115.648438 L 262.957031 115.632813 L 263.128906 115.609375 L 263.214844 115.601563 L 263.304688 115.597656 L 263.480469 115.597656 L 263.566406 115.601563 L 263.648438 115.609375 L 263.734375 115.621094 L 263.816406 115.632813 L 263.894531 115.648438 L 263.976563 115.667969 L 264.054688 115.691406 L 264.128906 115.714844 L 264.207031 115.742188 L 264.28125 115.773438 L 264.355469 115.808594 L 264.425781 115.847656 L 264.496094 115.890625 L 264.566406 115.9375 L 264.628906 115.992188 L 264.695313 116.046875 L 264.753906 116.105469 L 264.816406 116.171875 L 264.871094 116.242188 L 264.929688 116.316406 L 264.980469 116.394531 L 265.03125 116.476563 L 265.082031 116.566406 L 265.125 116.660156 L 265.167969 116.757813 L 265.210938 116.859375 L 265.25 116.96875 L 265.285156 117.082031 L 265.320313 117.199219 L 265.351563 117.320313 L 265.378906 117.453125 L 265.402344 117.585938 L 265.425781 117.726563 L 265.441406 117.875 L 265.457031 118.03125 L 265.46875 118.191406 L 265.476563 118.359375 L 265.480469 118.53125 Z M 264.695313 118.710938 L 264.695313 118.570313 L 264.691406 118.433594 L 264.6875 118.300781 L 264.683594 118.171875 L 264.675781 118.050781 L 264.664063 117.933594 L 264.65625 117.820313 L 264.640625 117.714844 L 264.628906 117.609375 L 264.609375 117.511719 L 264.59375 117.417969 L 264.574219 117.328125 L 264.550781 117.242188 L 264.527344 117.160156 L 264.503906 117.082031 L 264.476563 117.007813 L 264.449219 116.9375 L 264.421875 116.871094 L 264.390625 116.808594 L 264.355469 116.75 L 264.324219 116.691406 L 264.289063 116.640625 L 264.25 116.589844 L 264.171875 116.503906 L 264.128906 116.464844 L 264.085938 116.429688 L 264.039063 116.398438 L 263.945313 116.34375 L 263.894531 116.320313 L 263.847656 116.300781 L 263.792969 116.28125 L 263.742188 116.265625 L 263.632813 116.242188 L 263.574219 116.234375 L 263.457031 116.226563 L 263.394531 116.222656 L 263.332031 116.226563 L 263.265625 116.230469 L 263.207031 116.234375 L 263.144531 116.242188 L 263.085938 116.253906 L 263.03125 116.265625 L 262.976563 116.28125 L 262.921875 116.300781 L 262.871094 116.320313 L 262.820313 116.34375 L 262.769531 116.371094 L 262.722656 116.398438 L 262.675781 116.433594 L 262.632813 116.46875 L 262.589844 116.507813 L 262.546875 116.550781 L 262.507813 116.59375 L 262.46875 116.644531 L 262.433594 116.695313 L 262.363281 116.8125 L 262.335938 116.875 L 262.304688 116.941406 L 262.277344 117.011719 L 262.25 117.085938 L 262.226563 117.164063 L 262.203125 117.246094 L 262.183594 117.332031 L 262.164063 117.421875 L 262.144531 117.515625 L 262.113281 117.71875 L 262.101563 117.824219 L 262.089844 117.9375 L 262.078125 118.054688 L 262.070313 118.175781 L 262.0625 118.433594 L 262.058594 118.570313 L 262.058594 118.847656 L 262.0625 118.980469 L 262.066406 119.109375 L 262.070313 119.234375 L 262.078125 119.351563 L 262.089844 119.46875 L 262.113281 119.6875 L 262.128906 119.789063 L 262.144531 119.886719 L 262.164063 119.980469 L 262.183594 120.070313 L 262.207031 120.15625 L 262.230469 120.238281 L 262.253906 120.316406 L 262.28125 120.390625 L 262.308594 120.460938 L 262.339844 120.53125 L 262.371094 120.59375 L 262.402344 120.652344 L 262.4375 120.710938 L 262.472656 120.761719 L 262.511719 120.8125 L 262.550781 120.859375 L 262.632813 120.941406 L 262.679688 120.980469 L 262.722656 121.011719 L 262.769531 121.042969 L 262.820313 121.070313 L 262.867188 121.09375 L 262.917969 121.117188 L 262.972656 121.132813 L 263.027344 121.152344 L 263.136719 121.175781 L 263.253906 121.191406 L 263.316406 121.195313 L 263.4375 121.195313 L 263.496094 121.191406 L 263.613281 121.175781 L 263.722656 121.152344 L 263.773438 121.132813 L 263.828125 121.117188 L 263.878906 121.09375 L 263.925781 121.070313 L 263.976563 121.042969 L 264.023438 121.011719 L 264.066406 120.980469 L 264.152344 120.902344 L 264.195313 120.859375 L 264.234375 120.8125 L 264.304688 120.710938 L 264.375 120.59375 L 264.40625 120.53125 L 264.4375 120.460938 L 264.464844 120.390625 L 264.492188 120.316406 L 264.515625 120.238281 L 264.539063 120.15625 L 264.5625 120.070313 L 264.582031 119.980469 L 264.601563 119.886719 L 264.621094 119.789063 L 264.636719 119.6875 L 264.652344 119.578125 L 264.664063 119.46875 L 264.679688 119.234375 L 264.6875 119.109375 L 264.691406 118.980469 L 264.695313 118.847656 Z M 264.695313 118.710938 "/>
<path style=" stroke:none;fill-rule:nonzero;fill:rgb(0%,0%,0%);fill-opacity:1;" d="M 261.601563 139.019531 L 261.601563 138.363281 L 263.144531 138.363281 L 263.144531 133.707031 L 261.777344 134.679688 L 261.777344 133.949219 L 263.210938 132.96875 L 263.921875 132.96875 L 263.921875 138.363281 L 265.398438 138.363281 L 265.398438 139.019531 Z M 261.601563 139.019531 "/>
<path style=" stroke:none;fill-rule:nonzero;fill:rgb(0%,0%,0%);fill-opacity:1;" d="M 261.375 156.300781 L 261.375 155.753906 L 261.421875 155.65625 L 261.464844 155.558594 L 261.566406 155.371094 L 261.617188 155.28125 L 261.726563 155.109375 L 261.785156 155.027344 L 261.847656 154.949219 L 261.90625 154.871094 L 261.972656 154.792969 L 262.035156 154.71875 L 262.101563 154.644531 L 262.300781 154.433594 L 262.367188 154.367188 L 262.4375 154.300781 L 262.503906 154.238281 L 262.714844 154.050781 L 262.78125 153.992188 L 262.851563 153.929688 L 262.921875 153.871094 L 262.988281 153.816406 L 263.058594 153.757813 L 263.125 153.703125 L 263.195313 153.648438 L 263.261719 153.59375 L 263.328125 153.542969 L 263.460938 153.433594 L 263.527344 153.382813 L 263.589844 153.328125 L 263.648438 153.273438 L 263.710938 153.222656 L 263.765625 153.167969 L 263.824219 153.113281 L 263.878906 153.0625 L 263.933594 153.007813 L 264.035156 152.898438 L 264.128906 152.789063 L 264.171875 152.734375 L 264.25 152.617188 L 264.289063 152.5625 L 264.324219 152.503906 L 264.355469 152.445313 L 264.410156 152.320313 L 264.433594 152.257813 L 264.453125 152.191406 L 264.46875 152.125 L 264.480469 152.054688 L 264.488281 151.984375 L 264.492188 151.914063 L 264.496094 151.839844 L 264.492188 151.789063 L 264.492188 151.742188 L 264.488281 151.691406 L 264.480469 151.644531 L 264.476563 151.597656 L 264.46875 151.554688 L 264.445313 151.46875 L 264.433594 151.429688 L 264.402344 151.351563 L 264.382813 151.3125 L 264.324219 151.207031 L 264.277344 151.144531 L 264.25 151.113281 L 264.195313 151.058594 L 264.164063 151.035156 L 264.132813 151.007813 L 264.101563 150.984375 L 264.066406 150.964844 L 264.03125 150.941406 L 263.996094 150.925781 L 263.960938 150.90625 L 263.882813 150.875 L 263.839844 150.863281 L 263.800781 150.847656 L 263.757813 150.835938 L 263.714844 150.828125 L 263.671875 150.816406 L 263.628906 150.808594 L 263.441406 150.792969 L 263.34375 150.792969 L 263.296875 150.796875 L 263.253906 150.796875 L 263.207031 150.804688 L 263.164063 150.808594 L 263.078125 150.824219 L 263.035156 150.835938 L 262.992188 150.84375 L 262.953125 150.855469 L 262.796875 150.917969 L 262.726563 150.957031 L 262.691406 150.980469 L 262.65625 151 L 262.625 151.027344 L 262.589844 151.050781 L 262.558594 151.078125 L 262.53125 151.105469 L 262.5 151.132813 L 262.445313 151.195313 L 262.421875 151.226563 L 262.394531 151.261719 L 262.371094 151.296875 L 262.351563 151.335938 L 262.328125 151.371094 L 262.308594 151.410156 L 262.292969 151.449219 L 262.246094 151.578125 L 262.234375 151.621094 L 262.222656 151.667969 L 262.214844 151.714844 L 262.199219 151.816406 L 261.410156 151.742188 L 261.417969 151.675781 L 261.441406 151.550781 L 261.472656 151.425781 L 261.492188 151.363281 L 261.5625 151.1875 L 261.589844 151.128906 L 261.621094 151.070313 L 261.683594 150.960938 L 261.71875 150.910156 L 261.757813 150.859375 L 261.800781 150.808594 L 261.839844 150.761719 L 261.933594 150.667969 L 261.980469 150.625 L 262.03125 150.582031 L 262.195313 150.464844 L 262.253906 150.429688 L 262.316406 150.394531 L 262.378906 150.363281 L 262.441406 150.335938 L 262.507813 150.308594 L 262.578125 150.28125 L 262.648438 150.257813 L 262.722656 150.238281 L 262.800781 150.21875 L 262.957031 150.1875 L 263.039063 150.175781 L 263.210938 150.160156 L 263.300781 150.15625 L 263.480469 150.15625 L 263.566406 150.160156 L 263.652344 150.167969 L 263.816406 150.183594 L 263.894531 150.195313 L 264.050781 150.226563 L 264.121094 150.242188 L 264.195313 150.265625 L 264.261719 150.285156 L 264.332031 150.3125 L 264.457031 150.367188 L 264.519531 150.398438 L 264.578125 150.429688 L 264.632813 150.464844 L 264.6875 150.503906 L 264.738281 150.542969 L 264.785156 150.582031 L 264.835938 150.625 L 264.964844 150.765625 L 265.003906 150.816406 L 265.074219 150.925781 L 265.105469 150.980469 L 265.132813 151.042969 L 265.160156 151.101563 L 265.183594 151.164063 L 265.207031 151.230469 L 265.226563 151.296875 L 265.242188 151.363281 L 265.257813 151.433594 L 265.269531 151.507813 L 265.285156 151.65625 L 265.289063 151.734375 L 265.289063 151.875 L 265.285156 151.9375 L 265.28125 151.996094 L 265.273438 152.054688 L 265.25 152.171875 L 265.234375 152.226563 L 265.21875 152.285156 L 265.179688 152.394531 L 265.132813 152.503906 L 265.078125 152.613281 L 265.050781 152.664063 L 265.019531 152.714844 L 264.988281 152.769531 L 264.957031 152.820313 L 264.921875 152.871094 L 264.886719 152.917969 L 264.847656 152.96875 L 264.8125 153.019531 L 264.773438 153.066406 L 264.730469 153.117188 L 264.691406 153.164063 L 264.648438 153.210938 L 264.605469 153.261719 L 264.417969 153.449219 L 264.367188 153.492188 L 264.320313 153.539063 L 264.269531 153.585938 L 264.21875 153.628906 L 264.117188 153.722656 L 264.066406 153.765625 L 264.015625 153.8125 L 263.960938 153.855469 L 263.910156 153.898438 L 263.855469 153.945313 L 263.804688 153.988281 L 263.75 154.03125 L 263.699219 154.074219 L 263.644531 154.121094 L 263.59375 154.164063 L 263.539063 154.207031 L 263.488281 154.25 L 263.378906 154.335938 L 263.328125 154.378906 L 263.277344 154.425781 L 263.074219 154.597656 L 263.027344 154.640625 L 262.976563 154.683594 L 262.886719 154.773438 L 262.839844 154.816406 L 262.796875 154.859375 L 262.753906 154.90625 L 262.710938 154.949219 L 262.667969 154.996094 L 262.628906 155.039063 L 262.589844 155.085938 L 262.550781 155.128906 L 262.515625 155.175781 L 262.476563 155.21875 L 262.441406 155.265625 L 262.347656 155.40625 L 262.320313 155.453125 L 262.296875 155.5 L 262.269531 155.546875 L 262.246094 155.59375 L 262.226563 155.644531 L 265.382813 155.644531 L 265.382813 156.300781 Z M 261.375 156.300781 "/>
<path style=" stroke:none;fill-rule:nonzero;fill:rgb(0%,0%,0%);fill-opacity:1;" d="M 265.441406 171.910156 L 265.433594 172.074219 L 265.417969 172.230469 L 265.40625 172.304688 L 265.390625 172.378906 L 265.351563 172.519531 L 265.328125 172.585938 L 265.273438 172.71875 L 265.242188 172.78125 L 265.210938 172.839844 L 265.175781 172.898438 L 265.136719 172.957031 L 265.097656 173.007813 L 265.054688 173.0625 L 265.007813 173.113281 L 264.90625 173.207031 L 264.855469 173.25 L 264.800781 173.292969 L 264.742188 173.332031 L 264.679688 173.371094 L 264.617188 173.40625 L 264.484375 173.46875 L 264.414063 173.5 L 264.339844 173.527344 L 264.183594 173.574219 L 264.105469 173.59375 L 264.023438 173.609375 L 263.9375 173.625 L 263.851563 173.636719 L 263.761719 173.648438 L 263.671875 173.65625 L 263.578125 173.664063 L 263.484375 173.667969 L 263.386719 173.667969 L 263.273438 173.664063 L 263.0625 173.65625 L 262.867188 173.632813 L 262.773438 173.617188 L 262.683594 173.601563 L 262.597656 173.578125 L 262.515625 173.554688 L 262.4375 173.53125 L 262.289063 173.46875 L 262.21875 173.4375 L 262.085938 173.367188 L 262.027344 173.328125 L 261.964844 173.289063 L 261.855469 173.203125 L 261.804688 173.160156 L 261.710938 173.066406 L 261.625 172.964844 L 261.585938 172.914063 L 261.515625 172.804688 L 261.484375 172.75 L 261.457031 172.695313 L 261.429688 172.636719 L 261.40625 172.578125 L 261.382813 172.515625 L 261.363281 172.457031 L 261.34375 172.394531 L 261.328125 172.335938 L 261.296875 172.210938 L 261.285156 172.152344 L 261.269531 172.027344 L 262.066406 171.953125 L 262.082031 172.046875 L 262.09375 172.09375 L 262.101563 172.136719 L 262.117188 172.183594 L 262.140625 172.269531 L 262.15625 172.308594 L 262.175781 172.351563 L 262.191406 172.390625 L 262.230469 172.46875 L 262.300781 172.574219 L 262.328125 172.609375 L 262.382813 172.671875 L 262.414063 172.703125 L 262.476563 172.757813 L 262.511719 172.785156 L 262.546875 172.808594 L 262.585938 172.832031 L 262.621094 172.855469 L 262.664063 172.878906 L 262.703125 172.898438 L 262.746094 172.917969 L 262.789063 172.933594 L 262.882813 172.964844 L 263.035156 173 L 263.144531 173.015625 L 263.261719 173.023438 L 263.324219 173.027344 L 263.386719 173.027344 L 263.5 173.023438 L 263.609375 173.015625 L 263.714844 173 L 263.8125 172.980469 L 263.90625 172.957031 L 263.996094 172.921875 L 264.078125 172.886719 L 264.160156 172.84375 L 264.234375 172.792969 L 264.300781 172.738281 L 264.363281 172.679688 L 264.421875 172.613281 L 264.472656 172.542969 L 264.515625 172.464844 L 264.554688 172.382813 L 264.582031 172.292969 L 264.605469 172.199219 L 264.625 172.101563 L 264.632813 171.996094 L 264.636719 171.882813 L 264.636719 171.820313 L 264.628906 171.753906 L 264.613281 171.636719 L 264.597656 171.582031 L 264.582031 171.53125 L 264.5625 171.480469 L 264.539063 171.433594 L 264.515625 171.390625 L 264.484375 171.347656 L 264.457031 171.308594 L 264.425781 171.269531 L 264.390625 171.230469 L 264.355469 171.195313 L 264.320313 171.164063 L 264.28125 171.132813 L 264.203125 171.078125 L 264.160156 171.050781 L 264.117188 171.027344 L 264.074219 171.007813 L 264.027344 170.984375 L 263.980469 170.964844 L 263.839844 170.917969 L 263.6875 170.882813 L 263.535156 170.859375 L 263.484375 170.855469 L 263.433594 170.847656 L 263.386719 170.84375 L 263.339844 170.84375 L 263.246094 170.835938 L 262.71875 170.835938 L 262.71875 170.164063 L 263.230469 170.164063 L 263.273438 170.160156 L 263.320313 170.160156 L 263.363281 170.15625 L 263.410156 170.148438 L 263.457031 170.144531 L 263.644531 170.113281 L 263.691406 170.101563 L 263.734375 170.085938 L 263.777344 170.074219 L 263.824219 170.058594 L 263.863281 170.039063 L 263.90625 170.023438 L 263.949219 170.003906 L 263.988281 169.980469 L 264.027344 169.960938 L 264.066406 169.933594 L 264.171875 169.851563 L 264.207031 169.820313 L 264.238281 169.785156 L 264.265625 169.75 L 264.296875 169.714844 L 264.324219 169.675781 L 264.347656 169.636719 L 264.375 169.59375 L 264.394531 169.550781 L 264.414063 169.503906 L 264.429688 169.457031 L 264.445313 169.40625 L 264.457031 169.355469 L 264.464844 169.300781 L 264.472656 169.242188 L 264.476563 169.183594 L 264.476563 169.027344 L 264.464844 168.933594 L 264.453125 168.847656 L 264.429688 168.765625 L 264.40625 168.6875 L 264.375 168.613281 L 264.335938 168.542969 L 264.292969 168.476563 L 264.246094 168.414063 L 264.191406 168.355469 L 264.128906 168.300781 L 264.066406 168.253906 L 263.996094 168.210938 L 263.917969 168.175781 L 263.835938 168.144531 L 263.75 168.117188 L 263.65625 168.097656 L 263.558594 168.085938 L 263.453125 168.074219 L 263.242188 168.074219 L 263.144531 168.082031 L 262.964844 168.113281 L 262.878906 168.136719 L 262.800781 168.167969 L 262.722656 168.203125 L 262.648438 168.242188 L 262.578125 168.285156 L 262.515625 168.335938 L 262.453125 168.390625 L 262.398438 168.449219 L 262.347656 168.511719 L 262.304688 168.578125 L 262.265625 168.652344 L 262.230469 168.726563 L 262.203125 168.808594 L 262.179688 168.890625 L 262.160156 168.980469 L 262.148438 169.074219 L 261.371094 169.015625 L 261.382813 168.933594 L 261.394531 168.859375 L 261.410156 168.785156 L 261.429688 168.710938 L 261.449219 168.640625 L 261.472656 168.570313 L 261.5 168.503906 L 261.527344 168.441406 L 261.589844 168.316406 L 261.625 168.257813 L 261.703125 168.148438 L 261.742188 168.097656 L 261.785156 168.046875 L 261.828125 168 L 261.875 167.953125 L 261.921875 167.910156 L 261.972656 167.867188 L 262.023438 167.828125 L 262.078125 167.789063 L 262.132813 167.753906 L 262.191406 167.71875 L 262.308594 167.65625 L 262.433594 167.601563 L 262.496094 167.578125 L 262.5625 167.554688 L 262.628906 167.535156 L 262.699219 167.515625 L 262.765625 167.5 L 262.835938 167.484375 L 262.910156 167.472656 L 262.980469 167.460938 L 263.050781 167.453125 L 263.125 167.445313 L 263.199219 167.441406 L 263.277344 167.4375 L 263.453125 167.4375 L 263.550781 167.441406 L 263.644531 167.449219 L 263.734375 167.457031 L 263.824219 167.46875 L 263.910156 167.484375 L 263.992188 167.5 L 264.074219 167.519531 L 264.296875 167.589844 L 264.363281 167.621094 L 264.429688 167.648438 L 264.496094 167.679688 L 264.671875 167.785156 L 264.722656 167.824219 L 264.773438 167.867188 L 264.867188 167.953125 L 264.910156 168 L 264.988281 168.09375 L 265.023438 168.144531 L 265.054688 168.195313 L 265.085938 168.25 L 265.113281 168.300781 L 265.183594 168.476563 L 265.199219 168.535156 L 265.21875 168.59375 L 265.230469 168.65625 L 265.246094 168.71875 L 265.261719 168.84375 L 265.269531 168.910156 L 265.269531 168.972656 L 265.273438 169.039063 L 265.273438 169.09375 L 265.261719 169.246094 L 265.246094 169.347656 L 265.238281 169.394531 L 265.226563 169.445313 L 265.214844 169.492188 L 265.199219 169.539063 L 265.183594 169.582031 L 265.167969 169.628906 L 265.128906 169.714844 L 265.082031 169.800781 L 265.058594 169.839844 L 265.03125 169.878906 L 265 169.917969 L 264.972656 169.953125 L 264.941406 169.992188 L 264.871094 170.0625 L 264.835938 170.09375 L 264.796875 170.125 L 264.753906 170.15625 L 264.714844 170.1875 L 264.667969 170.21875 L 264.625 170.246094 L 264.578125 170.273438 L 264.527344 170.296875 L 264.476563 170.324219 L 264.425781 170.347656 L 264.371094 170.367188 L 264.316406 170.390625 L 264.257813 170.410156 L 264.195313 170.425781 L 264.136719 170.445313 L 264.003906 170.476563 L 264.003906 170.492188 L 264.078125 170.5 L 264.148438 170.511719 L 264.214844 170.523438 L 264.347656 170.554688 L 264.410156 170.570313 L 264.46875 170.589844 L 264.527344 170.613281 L 264.585938 170.632813 L 264.640625 170.660156 L 264.695313 170.683594 L 264.746094 170.710938 L 264.792969 170.738281 L 264.84375 170.769531 L 264.886719 170.800781 L 264.933594 170.832031 L 264.972656 170.867188 L 265.011719 170.898438 L 265.085938 170.972656 L 265.15625 171.050781 L 265.183594 171.089844 L 265.214844 171.132813 L 265.242188 171.175781 L 265.289063 171.261719 L 265.3125 171.308594 L 265.351563 171.402344 L 265.367188 171.453125 L 265.382813 171.5 L 265.394531 171.550781 L 265.40625 171.597656 L 265.417969 171.648438 L 265.425781 171.699219 L 265.433594 171.753906 L 265.4375 171.804688 L 265.4375 171.855469 Z M 265.441406 171.910156 "/>
<path style=" stroke:none;fill-rule:nonzero;fill:rgb(0%,0%,0%);fill-opacity:1;" d="M 264.71875 189.492188 L 264.71875 190.863281 L 263.988281 190.863281 L 263.988281 189.492188 L 261.132813 189.492188 L 261.132813 188.890625 L 263.90625 184.808594 L 264.71875 184.808594 L 264.71875 188.878906 L 265.570313 188.878906 L 265.570313 189.492188 Z M 263.988281 185.679688 L 263.984375 185.683594 L 263.984375 185.691406 L 263.980469 185.695313 L 263.96875 185.71875 L 263.964844 185.730469 L 263.957031 185.742188 L 263.953125 185.753906 L 263.929688 185.789063 L 263.921875 185.804688 L 263.914063 185.816406 L 263.910156 185.828125 L 263.902344 185.84375 L 263.890625 185.859375 L 263.882813 185.871094 L 263.851563 185.933594 L 263.839844 185.949219 L 263.824219 185.980469 L 263.8125 185.996094 L 263.796875 186.027344 L 263.785156 186.046875 L 263.769531 186.078125 L 263.761719 186.089844 L 263.746094 186.121094 L 263.699219 186.191406 L 262.148438 188.476563 L 262.140625 188.492188 L 262.132813 188.5 L 262.128906 188.507813 L 262.121094 188.515625 L 262.113281 188.527344 L 262.109375 188.535156 L 262.101563 188.546875 L 262.09375 188.554688 L 262.0625 188.601563 L 262.050781 188.613281 L 262.003906 188.683594 L 261.992188 188.695313 L 261.984375 188.707031 L 261.976563 188.714844 L 261.960938 188.738281 L 261.949219 188.75 L 261.925781 188.785156 L 261.917969 188.792969 L 261.910156 188.804688 L 261.890625 188.824219 L 261.886719 188.835938 L 261.863281 188.859375 L 261.859375 188.867188 L 261.847656 188.878906 L 263.988281 188.878906 Z M 263.988281 185.679688 "/>
<path style=" stroke:none;fill-rule:nonzero;fill:rgb(0%,0%,0%);fill-opacity:1;" d="M 265.457031 206.167969 L 265.457031 206.257813 L 265.453125 206.347656 L 265.445313 206.433594 L 265.421875 206.605469 L 265.390625 206.769531 L 265.371094 206.847656 L 265.347656 206.925781 L 265.320313 207.003906 L 265.289063 207.078125 L 265.226563 207.21875 L 265.1875 207.289063 L 265.148438 207.355469 L 265.0625 207.480469 L 265.015625 207.542969 L 264.964844 207.601563 L 264.910156 207.65625 L 264.855469 207.707031 L 264.738281 207.808594 L 264.671875 207.851563 L 264.609375 207.894531 L 264.539063 207.9375 L 264.46875 207.976563 L 264.394531 208.011719 L 264.316406 208.046875 L 264.238281 208.078125 L 264.15625 208.105469 L 264.070313 208.132813 L 263.898438 208.171875 L 263.804688 208.191406 L 263.710938 208.203125 L 263.613281 208.214844 L 263.515625 208.222656 L 263.414063 208.226563 L 263.214844 208.226563 L 263.121094 208.222656 L 263.035156 208.21875 L 262.945313 208.210938 L 262.78125 208.1875 L 262.699219 208.171875 L 262.621094 208.15625 L 262.546875 208.136719 L 262.476563 208.117188 L 262.40625 208.09375 L 262.339844 208.066406 L 262.273438 208.042969 L 262.210938 208.011719 L 262.148438 207.984375 L 262.089844 207.953125 L 261.980469 207.882813 L 261.929688 207.847656 L 261.828125 207.769531 L 261.785156 207.730469 L 261.738281 207.6875 L 261.699219 207.640625 L 261.65625 207.597656 L 261.621094 207.550781 L 261.582031 207.503906 L 261.550781 207.453125 L 261.515625 207.402344 L 261.488281 207.351563 L 261.460938 207.296875 L 261.433594 207.246094 L 261.386719 207.136719 L 261.367188 207.078125 L 261.347656 207.023438 L 261.328125 206.964844 L 261.296875 206.847656 L 261.285156 206.789063 L 262.066406 206.699219 L 262.078125 206.730469 L 262.085938 206.765625 L 262.097656 206.800781 L 262.109375 206.832031 L 262.125 206.867188 L 262.136719 206.902344 L 262.152344 206.933594 L 262.167969 206.96875 L 262.199219 207.03125 L 262.277344 207.15625 L 262.324219 207.210938 L 262.351563 207.242188 L 262.375 207.269531 L 262.402344 207.292969 L 262.433594 207.320313 L 262.527344 207.390625 L 262.5625 207.414063 L 262.597656 207.433594 L 262.675781 207.472656 L 262.714844 207.488281 L 262.753906 207.507813 L 262.796875 207.523438 L 262.84375 207.535156 L 262.890625 207.550781 L 262.9375 207.558594 L 262.988281 207.570313 L 263.039063 207.578125 L 263.09375 207.582031 L 263.148438 207.589844 L 263.207031 207.59375 L 263.445313 207.59375 L 263.5 207.585938 L 263.558594 207.582031 L 263.613281 207.574219 L 263.667969 207.5625 L 263.71875 207.550781 L 263.773438 207.539063 L 263.820313 207.523438 L 263.921875 207.484375 L 263.964844 207.464844 L 264.011719 207.441406 L 264.054688 207.417969 L 264.097656 207.390625 L 264.140625 207.359375 L 264.179688 207.332031 L 264.21875 207.300781 L 264.324219 207.195313 L 264.355469 207.15625 L 264.386719 207.113281 L 264.417969 207.074219 L 264.445313 207.03125 L 264.46875 206.984375 L 264.496094 206.9375 L 264.519531 206.890625 L 264.558594 206.789063 L 264.578125 206.734375 L 264.609375 206.625 L 264.621094 206.566406 L 264.628906 206.507813 L 264.644531 206.382813 L 264.648438 206.320313 L 264.652344 206.253906 L 264.652344 206.132813 L 264.640625 205.96875 L 264.632813 205.917969 L 264.621094 205.867188 L 264.609375 205.820313 L 264.597656 205.769531 L 264.582031 205.722656 L 264.523438 205.582031 L 264.503906 205.539063 L 264.480469 205.496094 L 264.371094 205.339844 L 264.339844 205.304688 L 264.304688 205.269531 L 264.199219 205.175781 L 264.160156 205.144531 L 264.117188 205.117188 L 264.078125 205.09375 L 264.03125 205.066406 L 263.988281 205.046875 L 263.941406 205.023438 L 263.894531 205.003906 L 263.84375 204.988281 L 263.792969 204.96875 L 263.691406 204.945313 L 263.636719 204.933594 L 263.578125 204.925781 L 263.523438 204.917969 L 263.40625 204.910156 L 263.265625 204.910156 L 263.230469 204.914063 L 263.191406 204.914063 L 263.085938 204.925781 L 263.054688 204.933594 L 263.019531 204.9375 L 262.988281 204.945313 L 262.953125 204.953125 L 262.828125 204.984375 L 262.796875 204.996094 L 262.769531 205.003906 L 262.738281 205.015625 L 262.710938 205.027344 L 262.679688 205.039063 L 262.652344 205.050781 L 262.628906 205.0625 L 262.601563 205.078125 L 262.574219 205.089844 L 262.550781 205.105469 L 262.523438 205.117188 L 262.382813 205.210938 L 262.363281 205.226563 L 262.339844 205.242188 L 262.320313 205.261719 L 262.296875 205.277344 L 262.257813 205.308594 L 262.238281 205.328125 L 262.21875 205.34375 L 261.460938 205.34375 L 261.664063 202.085938 L 265.105469 202.085938 L 265.105469 202.746094 L 262.367188 202.746094 L 262.25 204.664063 L 262.292969 204.632813 L 262.339844 204.601563 L 262.433594 204.546875 L 262.535156 204.492188 L 262.589844 204.464844 L 262.765625 204.394531 L 262.832031 204.371094 L 262.894531 204.351563 L 263.035156 204.320313 L 263.105469 204.308594 L 263.179688 204.296875 L 263.335938 204.28125 L 263.417969 204.28125 L 263.503906 204.277344 L 263.589844 204.28125 L 263.679688 204.285156 L 263.765625 204.289063 L 263.929688 204.3125 L 264.011719 204.328125 L 264.167969 204.367188 L 264.242188 204.390625 L 264.3125 204.414063 L 264.386719 204.445313 L 264.519531 204.507813 L 264.585938 204.542969 L 264.648438 204.582031 L 264.707031 204.621094 L 264.765625 204.664063 L 264.824219 204.710938 L 264.878906 204.757813 L 264.929688 204.808594 L 264.976563 204.859375 L 265.027344 204.910156 L 265.070313 204.964844 L 265.113281 205.023438 L 265.191406 205.140625 L 265.226563 205.203125 L 265.261719 205.269531 L 265.292969 205.335938 L 265.320313 205.402344 L 265.347656 205.472656 L 265.371094 205.546875 L 265.390625 205.621094 L 265.421875 205.769531 L 265.445313 205.925781 L 265.453125 206.003906 L 265.457031 206.085938 Z M 265.457031 206.167969 "/>
<path style=" stroke:none;fill-rule:nonzero;fill:rgb(0%,0%,0%);fill-opacity:1;" d="M 265.441406 223.441406 L 265.433594 223.621094 L 265.429688 223.707031 L 265.40625 223.878906 L 265.394531 223.960938 L 265.375 224.042969 L 265.359375 224.121094 L 265.335938 224.203125 L 265.3125 224.277344 L 265.257813 224.425781 L 265.226563 224.496094 L 265.15625 224.628906 L 265.117188 224.695313 L 265.074219 224.757813 L 265.03125 224.816406 L 264.984375 224.875 L 264.9375 224.929688 L 264.886719 224.984375 L 264.835938 225.035156 L 264.78125 225.082031 L 264.722656 225.128906 L 264.664063 225.171875 L 264.601563 225.214844 L 264.535156 225.253906 L 264.46875 225.289063 L 264.398438 225.324219 L 264.328125 225.355469 L 264.253906 225.386719 L 264.097656 225.433594 L 264.015625 225.453125 L 263.933594 225.46875 L 263.847656 225.484375 L 263.761719 225.492188 L 263.671875 225.5 L 263.484375 225.507813 L 263.378906 225.503906 L 263.277344 225.5 L 263.082031 225.476563 L 262.988281 225.457031 L 262.808594 225.410156 L 262.726563 225.378906 L 262.640625 225.34375 L 262.5625 225.304688 L 262.484375 225.261719 L 262.410156 225.21875 L 262.335938 225.167969 L 262.265625 225.117188 L 262.132813 225 L 262.074219 224.9375 L 262.015625 224.871094 L 261.957031 224.800781 L 261.902344 224.726563 L 261.851563 224.648438 L 261.804688 224.566406 L 261.757813 224.480469 L 261.714844 224.390625 L 261.675781 224.300781 L 261.636719 224.207031 L 261.601563 224.109375 L 261.566406 224.007813 L 261.535156 223.902344 L 261.507813 223.792969 L 261.460938 223.566406 L 261.441406 223.445313 L 261.425781 223.324219 L 261.410156 223.199219 L 261.398438 223.074219 L 261.382813 222.808594 L 261.378906 222.671875 L 261.378906 222.535156 L 261.382813 222.375 L 261.386719 222.21875 L 261.394531 222.066406 L 261.402344 221.917969 L 261.433594 221.636719 L 261.449219 221.5 L 261.472656 221.367188 L 261.496094 221.238281 L 261.558594 220.996094 L 261.589844 220.878906 L 261.667969 220.660156 L 261.707031 220.554688 L 261.800781 220.359375 L 261.847656 220.269531 L 261.902344 220.179688 L 261.957031 220.097656 L 262.011719 220.019531 L 262.070313 219.941406 L 262.132813 219.871094 L 262.265625 219.738281 L 262.332031 219.679688 L 262.40625 219.625 L 262.480469 219.574219 L 262.554688 219.527344 L 262.632813 219.484375 L 262.714844 219.445313 L 262.800781 219.410156 L 262.886719 219.378906 L 262.972656 219.351563 L 263.0625 219.328125 L 263.15625 219.308594 L 263.25 219.296875 L 263.347656 219.285156 L 263.445313 219.277344 L 263.605469 219.277344 L 263.667969 219.28125 L 263.726563 219.28125 L 263.785156 219.289063 L 263.84375 219.292969 L 263.960938 219.308594 L 264.015625 219.316406 L 264.125 219.339844 L 264.179688 219.355469 L 264.28125 219.386719 L 264.382813 219.425781 L 264.429688 219.449219 L 264.480469 219.472656 L 264.523438 219.496094 L 264.570313 219.523438 L 264.613281 219.550781 L 264.660156 219.582031 L 264.703125 219.613281 L 264.742188 219.644531 L 264.785156 219.679688 L 264.902344 219.796875 L 264.972656 219.882813 L 265.007813 219.929688 L 265.039063 219.976563 L 265.070313 220.027344 L 265.101563 220.082031 L 265.15625 220.191406 L 265.183594 220.253906 L 265.207031 220.3125 L 265.230469 220.375 L 265.253906 220.441406 L 265.273438 220.511719 L 264.535156 220.644531 L 264.507813 220.566406 L 264.480469 220.496094 L 264.449219 220.429688 L 264.414063 220.367188 L 264.375 220.308594 L 264.335938 220.253906 L 264.292969 220.203125 L 264.246094 220.15625 L 264.199219 220.117188 L 264.148438 220.082031 L 264.09375 220.046875 L 264.039063 220.015625 L 263.921875 219.96875 L 263.863281 219.949219 L 263.800781 219.933594 L 263.738281 219.921875 L 263.671875 219.910156 L 263.605469 219.90625 L 263.535156 219.902344 L 263.410156 219.910156 L 263.351563 219.917969 L 263.234375 219.941406 L 263.175781 219.957031 L 263.121094 219.976563 L 263.066406 220 L 263.011719 220.027344 L 262.960938 220.054688 L 262.910156 220.085938 L 262.859375 220.121094 L 262.765625 220.199219 L 262.722656 220.242188 L 262.679688 220.289063 L 262.636719 220.339844 L 262.597656 220.390625 L 262.558594 220.445313 L 262.523438 220.503906 L 262.453125 220.628906 L 262.390625 220.769531 L 262.363281 220.839844 L 262.308594 220.996094 L 262.285156 221.078125 L 262.265625 221.164063 L 262.242188 221.253906 L 262.226563 221.34375 L 262.195313 221.539063 L 262.183594 221.636719 L 262.171875 221.742188 L 262.164063 221.847656 L 262.15625 221.957031 L 262.152344 222.070313 L 262.148438 222.1875 L 262.148438 222.304688 L 262.191406 222.230469 L 262.238281 222.15625 L 262.289063 222.089844 L 262.34375 222.023438 L 262.402344 221.960938 L 262.527344 221.851563 L 262.59375 221.800781 L 262.667969 221.753906 L 262.742188 221.714844 L 262.820313 221.675781 L 262.898438 221.640625 L 262.980469 221.609375 L 263.066406 221.582031 L 263.152344 221.558594 L 263.242188 221.539063 L 263.332031 221.527344 L 263.425781 221.515625 L 263.519531 221.507813 L 263.699219 221.507813 L 263.78125 221.511719 L 263.9375 221.527344 L 264.011719 221.539063 L 264.085938 221.554688 L 264.15625 221.570313 L 264.230469 221.59375 L 264.296875 221.613281 L 264.367188 221.640625 L 264.433594 221.667969 L 264.558594 221.730469 L 264.617188 221.765625 L 264.734375 221.84375 L 264.785156 221.886719 L 264.839844 221.929688 L 264.890625 221.976563 L 264.984375 222.078125 L 265.113281 222.242188 L 265.148438 222.304688 L 265.1875 222.367188 L 265.21875 222.429688 L 265.25 222.496094 L 265.28125 222.566406 L 265.308594 222.636719 L 265.355469 222.785156 L 265.375 222.859375 L 265.40625 223.015625 L 265.429688 223.179688 L 265.4375 223.351563 Z M 264.652344 223.476563 L 264.652344 223.351563 L 264.648438 223.292969 L 264.632813 223.175781 L 264.617188 223.066406 L 264.605469 223.011719 L 264.589844 222.960938 L 264.578125 222.90625 L 264.558594 222.859375 L 264.542969 222.808594 L 264.523438 222.761719 L 264.503906 222.71875 L 264.480469 222.671875 L 264.457031 222.632813 L 264.429688 222.589844 L 264.402344 222.550781 L 264.375 222.515625 L 264.34375 222.476563 L 264.3125 222.441406 L 264.28125 222.410156 L 264.246094 222.378906 L 264.207031 222.347656 L 264.171875 222.320313 L 264.09375 222.265625 L 264.050781 222.246094 L 264.007813 222.222656 L 263.914063 222.183594 L 263.820313 222.152344 L 263.769531 222.140625 L 263.714844 222.128906 L 263.664063 222.121094 L 263.605469 222.113281 L 263.550781 222.109375 L 263.492188 222.105469 L 263.347656 222.105469 L 263.308594 222.109375 L 263.265625 222.113281 L 263.09375 222.144531 L 262.964844 222.179688 L 262.921875 222.195313 L 262.882813 222.210938 L 262.765625 222.269531 L 262.6875 222.316406 L 262.582031 222.398438 L 262.519531 222.460938 L 262.488281 222.496094 L 262.433594 222.566406 L 262.40625 222.605469 L 262.378906 222.648438 L 262.332031 222.734375 L 262.3125 222.78125 L 262.292969 222.832031 L 262.277344 222.882813 L 262.265625 222.933594 L 262.242188 223.042969 L 262.234375 223.101563 L 262.226563 223.226563 L 262.226563 223.355469 L 262.234375 223.488281 L 262.238281 223.550781 L 262.246094 223.613281 L 262.28125 223.800781 L 262.3125 223.917969 L 262.328125 223.972656 L 262.347656 224.03125 L 262.371094 224.082031 L 262.390625 224.136719 L 262.417969 224.1875 L 262.441406 224.238281 L 262.496094 224.332031 L 262.527344 224.375 L 262.558594 224.421875 L 262.589844 224.460938 L 262.625 224.503906 L 262.734375 224.613281 L 262.777344 224.644531 L 262.816406 224.675781 L 262.859375 224.707031 L 262.902344 224.734375 L 262.949219 224.757813 L 262.992188 224.785156 L 263.042969 224.804688 L 263.089844 224.824219 L 263.140625 224.839844 L 263.242188 224.863281 L 263.292969 224.871094 L 263.347656 224.878906 L 263.402344 224.882813 L 263.515625 224.882813 L 263.570313 224.878906 L 263.621094 224.875 L 263.773438 224.851563 L 263.820313 224.839844 L 263.914063 224.808594 L 264 224.769531 L 264.085938 224.722656 L 264.125 224.699219 L 264.164063 224.671875 L 264.199219 224.640625 L 264.238281 224.613281 L 264.269531 224.578125 L 264.304688 224.546875 L 264.335938 224.511719 L 264.367188 224.472656 L 264.421875 224.394531 L 264.449219 224.351563 L 264.472656 224.304688 L 264.496094 224.261719 L 264.515625 224.214844 L 264.554688 224.113281 L 264.585938 224.011719 L 264.601563 223.957031 L 264.613281 223.902344 L 264.625 223.84375 L 264.640625 223.726563 L 264.644531 223.664063 L 264.652344 223.601563 Z M 264.652344 223.476563 "/>
<path style=" stroke:none;fill-rule:nonzero;fill:rgb(0%,0%,0%);fill-opacity:1;" d="M 265.382813 237.273438 L 265.292969 237.414063 L 265.203125 237.550781 L 265.03125 237.824219 L 264.945313 237.957031 L 264.78125 238.222656 L 264.703125 238.355469 L 264.546875 238.613281 L 264.398438 238.871094 L 264.257813 239.128906 L 264.125 239.386719 L 264.0625 239.519531 L 263.945313 239.777344 L 263.890625 239.910156 L 263.835938 240.039063 L 263.785156 240.167969 L 263.734375 240.300781 L 263.6875 240.433594 L 263.601563 240.699219 L 263.5625 240.835938 L 263.492188 241.109375 L 263.429688 241.382813 L 263.382813 241.664063 L 263.363281 241.804688 L 263.347656 241.949219 L 263.332031 242.097656 L 263.316406 242.394531 L 263.308594 242.546875 L 263.308594 242.703125 L 262.5 242.703125 L 262.503906 242.554688 L 262.507813 242.410156 L 262.515625 242.269531 L 262.527344 242.125 L 262.542969 241.984375 L 262.5625 241.839844 L 262.609375 241.558594 L 262.671875 241.277344 L 262.707031 241.140625 L 262.746094 241 L 262.785156 240.863281 L 262.828125 240.722656 L 262.921875 240.449219 L 263.023438 240.175781 L 263.078125 240.042969 L 263.136719 239.910156 L 263.195313 239.773438 L 263.320313 239.507813 L 263.386719 239.371094 L 263.453125 239.238281 L 263.523438 239.109375 L 263.664063 238.84375 L 263.738281 238.714844 L 263.894531 238.457031 L 263.972656 238.324219 L 264.050781 238.195313 L 264.132813 238.070313 L 264.378906 237.683594 L 264.464844 237.558594 L 264.550781 237.429688 L 264.636719 237.304688 L 261.382813 237.304688 L 261.382813 236.648438 L 265.382813 236.648438 Z M 265.382813 237.273438 "/>
<path style=" stroke:none;fill-rule:nonzero;fill:rgb(0%,0%,0%);fill-opacity:1;" d="M 265.445313 258.292969 L 265.441406 258.371094 L 265.433594 258.519531 L 265.425781 258.59375 L 265.414063 258.664063 L 265.382813 258.804688 L 265.363281 258.871094 L 265.34375 258.941406 L 265.320313 259.007813 L 265.265625 259.132813 L 265.203125 259.25 L 265.167969 259.308594 L 265.128906 259.363281 L 265.042969 259.464844 L 264.996094 259.515625 L 264.945313 259.566406 L 264.894531 259.609375 L 264.839844 259.65625 L 264.785156 259.695313 L 264.722656 259.738281 L 264.660156 259.773438 L 264.597656 259.8125 L 264.457031 259.875 L 264.382813 259.90625 L 264.226563 259.960938 L 264.144531 259.980469 L 264.058594 260.003906 L 263.878906 260.035156 L 263.785156 260.046875 L 263.589844 260.0625 L 263.488281 260.066406 L 263.277344 260.066406 L 263.175781 260.0625 L 263.074219 260.054688 L 262.976563 260.046875 L 262.882813 260.035156 L 262.792969 260.019531 L 262.707031 260.003906 L 262.621094 259.980469 L 262.539063 259.960938 L 262.457031 259.933594 L 262.382813 259.90625 L 262.308594 259.875 L 262.167969 259.8125 L 262.105469 259.777344 L 262.039063 259.738281 L 261.980469 259.699219 L 261.921875 259.65625 L 261.8125 259.570313 L 261.765625 259.519531 L 261.71875 259.472656 L 261.671875 259.417969 L 261.632813 259.367188 L 261.59375 259.3125 L 261.554688 259.253906 L 261.492188 259.136719 L 261.460938 259.074219 L 261.433594 259.011719 L 261.414063 258.945313 L 261.390625 258.878906 L 261.34375 258.667969 L 261.335938 258.597656 L 261.324219 258.527344 L 261.316406 258.378906 L 261.316406 258.234375 L 261.324219 258.109375 L 261.332031 258.046875 L 261.339844 257.988281 L 261.351563 257.929688 L 261.363281 257.875 L 261.394531 257.765625 L 261.414063 257.710938 L 261.433594 257.660156 L 261.480469 257.566406 L 261.507813 257.519531 L 261.53125 257.472656 L 261.5625 257.429688 L 261.589844 257.386719 L 261.683594 257.269531 L 261.753906 257.199219 L 261.792969 257.164063 L 261.828125 257.132813 L 261.90625 257.070313 L 261.945313 257.042969 L 261.988281 257.015625 L 262.027344 256.992188 L 262.070313 256.96875 L 262.117188 256.945313 L 262.203125 256.90625 L 262.25 256.890625 L 262.292969 256.871094 L 262.339844 256.859375 L 262.382813 256.84375 L 262.429688 256.832031 L 262.523438 256.816406 L 262.523438 256.796875 L 262.472656 256.785156 L 262.421875 256.769531 L 262.328125 256.738281 L 262.28125 256.71875 L 262.238281 256.699219 L 262.191406 256.675781 L 262.148438 256.65625 L 262.109375 256.628906 L 262.066406 256.605469 L 262.027344 256.578125 L 261.992188 256.546875 L 261.953125 256.519531 L 261.882813 256.457031 L 261.851563 256.425781 L 261.820313 256.390625 L 261.789063 256.359375 L 261.761719 256.324219 L 261.730469 256.285156 L 261.707031 256.246094 L 261.679688 256.207031 L 261.65625 256.167969 L 261.636719 256.128906 L 261.613281 256.085938 L 261.59375 256.046875 L 261.574219 256.003906 L 261.558594 255.957031 L 261.539063 255.914063 L 261.527344 255.871094 L 261.511719 255.824219 L 261.5 255.777344 L 261.492188 255.730469 L 261.480469 255.683594 L 261.472656 255.636719 L 261.46875 255.585938 L 261.464844 255.539063 L 261.457031 255.4375 L 261.457031 255.324219 L 261.460938 255.261719 L 261.46875 255.199219 L 261.476563 255.140625 L 261.488281 255.078125 L 261.5 255.019531 L 261.515625 254.960938 L 261.535156 254.902344 L 261.554688 254.847656 L 261.578125 254.789063 L 261.601563 254.734375 L 261.632813 254.679688 L 261.664063 254.628906 L 261.695313 254.574219 L 261.730469 254.527344 L 261.769531 254.476563 L 261.808594 254.429688 L 261.851563 254.382813 L 261.894531 254.339844 L 261.941406 254.296875 L 261.992188 254.253906 L 262.042969 254.214844 L 262.097656 254.175781 L 262.152344 254.140625 L 262.210938 254.105469 L 262.335938 254.042969 L 262.402344 254.011719 L 262.46875 253.988281 L 262.539063 253.960938 L 262.613281 253.9375 L 262.6875 253.917969 L 262.765625 253.898438 L 262.84375 253.882813 L 262.925781 253.867188 L 263.007813 253.855469 L 263.09375 253.847656 L 263.363281 253.835938 L 263.558594 253.84375 L 263.648438 253.847656 L 263.738281 253.855469 L 263.824219 253.867188 L 263.910156 253.882813 L 263.992188 253.898438 L 264.070313 253.917969 L 264.144531 253.9375 L 264.21875 253.960938 L 264.292969 253.988281 L 264.425781 254.042969 L 264.492188 254.074219 L 264.554688 254.109375 L 264.613281 254.144531 L 264.667969 254.179688 L 264.722656 254.21875 L 264.773438 254.257813 L 264.914063 254.386719 L 264.992188 254.480469 L 265.03125 254.53125 L 265.066406 254.578125 L 265.097656 254.632813 L 265.125 254.683594 L 265.152344 254.738281 L 265.179688 254.796875 L 265.199219 254.851563 L 265.238281 254.96875 L 265.253906 255.027344 L 265.265625 255.085938 L 265.277344 255.148438 L 265.285156 255.207031 L 265.292969 255.332031 L 265.292969 255.496094 L 265.289063 255.542969 L 265.28125 255.59375 L 265.277344 255.640625 L 265.269531 255.6875 L 265.222656 255.875 L 265.207031 255.917969 L 265.191406 255.964844 L 265.171875 256.007813 L 265.15625 256.050781 L 265.136719 256.089844 L 265.113281 256.132813 L 265.089844 256.171875 L 265.066406 256.214844 L 265.042969 256.253906 L 265.015625 256.289063 L 264.988281 256.328125 L 264.957031 256.363281 L 264.929688 256.398438 L 264.898438 256.429688 L 264.863281 256.460938 L 264.832031 256.492188 L 264.792969 256.523438 L 264.757813 256.554688 L 264.679688 256.609375 L 264.640625 256.632813 L 264.554688 256.679688 L 264.511719 256.699219 L 264.464844 256.71875 L 264.371094 256.75 L 264.320313 256.765625 L 264.273438 256.777344 L 264.21875 256.789063 L 264.21875 256.804688 L 264.273438 256.816406 L 264.324219 256.824219 L 264.375 256.839844 L 264.421875 256.851563 L 264.472656 256.867188 L 264.519531 256.882813 L 264.660156 256.941406 L 264.707031 256.964844 L 264.792969 257.011719 L 264.832031 257.039063 L 264.875 257.066406 L 264.914063 257.097656 L 264.953125 257.125 L 264.988281 257.160156 L 265.023438 257.191406 L 265.058594 257.230469 L 265.09375 257.265625 L 265.15625 257.34375 L 265.183594 257.382813 L 265.238281 257.46875 L 265.261719 257.515625 L 265.285156 257.558594 L 265.308594 257.609375 L 265.332031 257.65625 L 265.351563 257.707031 L 265.367188 257.761719 L 265.382813 257.8125 L 265.398438 257.871094 L 265.410156 257.925781 L 265.421875 257.984375 L 265.4375 258.101563 L 265.445313 258.226563 Z M 264.492188 255.441406 L 264.488281 255.394531 L 264.488281 255.351563 L 264.484375 255.304688 L 264.480469 255.261719 L 264.476563 255.222656 L 264.46875 255.179688 L 264.453125 255.101563 L 264.417969 254.984375 L 264.40625 254.949219 L 264.375 254.878906 L 264.335938 254.816406 L 264.3125 254.785156 L 264.292969 254.757813 L 264.265625 254.726563 L 264.242188 254.699219 L 264.214844 254.671875 L 264.121094 254.601563 L 264.085938 254.578125 L 264.015625 254.539063 L 263.976563 254.523438 L 263.933594 254.503906 L 263.894531 254.488281 L 263.847656 254.476563 L 263.804688 254.460938 L 263.753906 254.449219 L 263.707031 254.441406 L 263.652344 254.433594 L 263.601563 254.425781 L 263.542969 254.417969 L 263.484375 254.414063 L 263.246094 254.414063 L 263.191406 254.417969 L 263.082031 254.433594 L 263.03125 254.441406 L 262.984375 254.449219 L 262.9375 254.460938 L 262.890625 254.476563 L 262.847656 254.488281 L 262.808594 254.503906 L 262.769531 254.523438 L 262.730469 254.539063 L 262.691406 254.558594 L 262.65625 254.578125 L 262.621094 254.601563 L 262.527344 254.671875 L 262.5 254.699219 L 262.476563 254.726563 L 262.449219 254.757813 L 262.425781 254.785156 L 262.367188 254.878906 L 262.320313 254.984375 L 262.285156 255.101563 L 262.269531 255.179688 L 262.261719 255.222656 L 262.257813 255.261719 L 262.253906 255.304688 L 262.25 255.351563 L 262.25 255.394531 L 262.246094 255.441406 L 262.246094 255.476563 L 262.25 255.511719 L 262.25 255.546875 L 262.253906 255.585938 L 262.257813 255.621094 L 262.265625 255.660156 L 262.269531 255.695313 L 262.277344 255.734375 L 262.285156 255.769531 L 262.292969 255.808594 L 262.304688 255.847656 L 262.316406 255.882813 L 262.332031 255.917969 L 262.34375 255.953125 L 262.363281 255.988281 L 262.378906 256.023438 L 262.398438 256.058594 L 262.417969 256.089844 L 262.464844 256.152344 L 262.492188 256.183594 L 262.550781 256.242188 L 262.582031 256.269531 L 262.613281 256.292969 L 262.648438 256.316406 L 262.6875 256.34375 L 262.726563 256.363281 L 262.765625 256.386719 L 262.808594 256.40625 L 262.855469 256.425781 L 262.902344 256.441406 L 262.953125 256.457031 L 263.003906 256.46875 L 263.0625 256.480469 L 263.117188 256.488281 L 263.179688 256.496094 L 263.304688 256.503906 L 263.445313 256.503906 L 263.578125 256.496094 L 263.703125 256.480469 L 263.8125 256.457031 L 263.914063 256.425781 L 264 256.386719 L 264.042969 256.363281 L 264.082031 256.34375 L 264.121094 256.316406 L 264.152344 256.292969 L 264.1875 256.269531 L 264.21875 256.242188 L 264.246094 256.210938 L 264.273438 256.183594 L 264.320313 256.121094 L 264.339844 256.089844 L 264.363281 256.058594 L 264.410156 255.953125 L 264.445313 255.847656 L 264.460938 255.769531 L 264.464844 255.734375 L 264.472656 255.695313 L 264.476563 255.660156 L 264.480469 255.621094 L 264.484375 255.585938 L 264.488281 255.546875 L 264.488281 255.476563 Z M 264.640625 258.21875 L 264.640625 258.175781 L 264.636719 258.132813 L 264.636719 258.089844 L 264.632813 258.046875 L 264.625 258.003906 L 264.621094 257.960938 L 264.613281 257.921875 L 264.601563 257.878906 L 264.59375 257.839844 L 264.582031 257.796875 L 264.566406 257.757813 L 264.554688 257.71875 L 264.535156 257.679688 L 264.519531 257.640625 L 264.5 257.605469 L 264.429688 257.5 L 264.375 257.4375 L 264.3125 257.375 L 264.242188 257.320313 L 264.203125 257.292969 L 264.160156 257.269531 L 264.121094 257.246094 L 264.074219 257.222656 L 263.980469 257.183594 L 263.929688 257.164063 L 263.820313 257.132813 L 263.703125 257.109375 L 263.640625 257.101563 L 263.574219 257.09375 L 263.507813 257.089844 L 263.4375 257.085938 L 263.296875 257.085938 L 263.234375 257.089844 L 263.167969 257.09375 L 263.050781 257.109375 L 262.992188 257.121094 L 262.9375 257.132813 L 262.886719 257.148438 L 262.832031 257.164063 L 262.738281 257.203125 L 262.695313 257.222656 L 262.609375 257.269531 L 262.570313 257.292969 L 262.53125 257.320313 L 262.460938 257.375 L 262.398438 257.4375 L 262.371094 257.46875 L 262.316406 257.539063 L 262.269531 257.609375 L 262.25 257.648438 L 262.230469 257.683594 L 262.214844 257.726563 L 262.199219 257.765625 L 262.183594 257.808594 L 262.171875 257.847656 L 262.148438 257.933594 L 262.125 258.0625 L 262.113281 258.191406 L 262.113281 258.292969 L 262.117188 258.347656 L 262.121094 258.398438 L 262.125 258.453125 L 262.148438 258.605469 L 262.160156 258.652344 L 262.171875 258.703125 L 262.183594 258.75 L 262.230469 258.878906 L 262.25 258.921875 L 262.320313 259.039063 L 262.34375 259.074219 L 262.371094 259.109375 L 262.402344 259.144531 L 262.464844 259.207031 L 262.5 259.234375 L 262.578125 259.289063 L 262.617188 259.3125 L 262.703125 259.359375 L 262.796875 259.398438 L 262.898438 259.429688 L 262.953125 259.441406 L 263.011719 259.453125 L 263.066406 259.464844 L 263.191406 259.480469 L 263.253906 259.484375 L 263.320313 259.484375 L 263.390625 259.488281 L 263.460938 259.484375 L 263.527344 259.484375 L 263.59375 259.480469 L 263.65625 259.472656 L 263.714844 259.464844 L 263.773438 259.453125 L 263.882813 259.429688 L 263.984375 259.398438 L 264.03125 259.378906 L 264.074219 259.359375 L 264.121094 259.335938 L 264.199219 259.289063 L 264.238281 259.261719 L 264.308594 259.207031 L 264.371094 259.144531 L 264.425781 259.074219 L 264.449219 259.039063 L 264.496094 258.960938 L 264.515625 258.917969 L 264.53125 258.878906 L 264.550781 258.835938 L 264.5625 258.789063 L 264.578125 258.742188 L 264.589844 258.695313 L 264.597656 258.648438 L 264.609375 258.597656 L 264.625 258.496094 L 264.628906 258.441406 L 264.636719 258.386719 L 264.636719 258.332031 L 264.640625 258.277344 Z M 264.640625 258.21875 "/>
</g>
</svg>
